<svg width="70" height="70" viewBox="0 0 70 70" fill="#fff" xmlns="http://www.w3.org/2000/svg">
<path d="M34.5455 0C15.4997 0 0 15.7036 0 35C0 44.9771 4.1954 54.4651 11.529 61.0855C11.6705 61.2205 11.812 61.347 11.9536 61.4735C12.478 61.9373 13.0524 62.4181 13.7266 62.9325C13.9097 63.0759 14.0929 63.2108 14.276 63.3373C20.1862 67.6976 27.1785 70 34.5455 70C41.9124 70 48.9047 67.6976 54.8066 63.3373C54.9897 63.2108 55.1728 63.0759 55.356 62.9325C56.0386 62.4181 56.6129 61.9373 57.129 61.4819C57.2789 61.3554 57.4204 61.2205 57.5619 61.094C64.8955 54.4566 69.0909 44.9771 69.0909 35C69.0909 15.7036 53.5912 0 34.5455 0ZM34.5455 67.4699C28.9766 67.4699 23.6324 66.053 18.8876 63.3373H50.2033C45.4585 66.053 40.1144 67.4699 34.5455 67.4699ZM27.9194 52.812V51.7325H41.1715V52.812H27.9194ZM38.8574 55.4855V60.8072H35.7941V55.4855H38.8574ZM33.2968 55.4855V60.8072H30.2335V55.4855H33.2968ZM55.0646 59.947C54.74 60.2169 54.3904 60.5036 53.9908 60.8072H41.3547V55.4855H43.6688V49.2024H25.4221V55.4855H27.7363V60.8072H15.1001C14.7005 60.5036 14.3509 60.2169 14.0263 59.9386V15.6361H55.0646V59.947ZM41.8125 13.0386V11.8157H50.428V13.0386H41.8125ZM57.5619 57.5855V13.106H52.9253V9.28554H39.3152V13.106H11.529V57.594C5.76035 51.5639 2.49726 43.4759 2.49726 35C2.49726 17.1036 16.8732 2.53012 34.5455 2.53012C52.2177 2.53012 66.5937 17.1036 66.5937 35C66.5937 43.4675 63.3389 51.5554 57.5619 57.5855Z"/>
<path d="M52.9753 38.4746H45.4419V45.8204H52.9753V38.4746ZM50.7278 43.5433H47.6978V40.7517H50.7278V43.5433Z"/>
<path d="M43.2026 38.4746H35.6692V45.8204H43.2026V38.4746ZM40.9551 43.5433H37.9251V40.7517H40.9551V43.5433Z"/>
<path d="M33.4216 38.4746H25.8882V45.8204H33.4216V38.4746ZM31.1741 43.5433H28.144V40.7517H31.1741V43.5433Z"/>
<path d="M23.6241 38.4495H16.1323V45.7615H23.6241V38.4495ZM21.3849 43.4928H18.3632V40.7181H21.3849V43.4928Z"/>
<path d="M52.9753 28.5144H45.4419V35.8602H52.9753V28.5144ZM50.7278 33.5831H47.6978V30.7915H50.7278V33.5831Z"/>
<path d="M43.2026 28.5144H35.6692V35.8602H43.2026V28.5144ZM40.9551 33.5831H37.9251V30.7915H40.9551V33.5831Z"/>
<path d="M33.4216 28.5144H25.8882V35.8602H33.4216V28.5144ZM31.1741 33.5831H28.144V30.7915H31.1741V33.5831Z"/>
<path d="M23.6241 28.5312H16.1323V35.8433H23.6241V28.5312ZM21.3849 33.5746H18.3632V30.7999H21.3849V33.5746Z"/>
<path d="M52.9753 18.5459H45.4419V25.8917H52.9753V18.5459ZM50.7278 23.6146H47.6978V20.823H50.7278V23.6146Z"/>
<path d="M43.2026 18.5459H35.6692V25.8917H43.2026V18.5459ZM40.9551 23.6146H37.9251V20.823H40.9551V23.6146Z"/>
<path d="M33.4216 18.5459H25.8882V25.8917H33.4216V18.5459ZM31.1741 23.6146H28.144V20.823H31.1741V23.6146Z"/>
<path d="M23.6241 18.6133H16.1323V25.9253H23.6241V18.6133ZM21.3849 23.6567H18.3632V20.882H21.3849V23.6567Z"/>
</svg>
