<svg width="70" height="70" viewBox="0 0 70 70" fill="#fff" xmlns="http://www.w3.org/2000/svg">
<path d="M34.5455 0C15.4997 0 0 15.7036 0 35C0 46.7145 5.69376 57.5181 15.2666 64.0373C15.4497 64.1723 15.6412 64.2988 15.8326 64.4253C16.4153 64.8133 17.0064 65.1675 17.6223 65.5217C17.8138 65.6313 18.0053 65.7325 18.1967 65.8337C23.1996 68.5663 28.8351 70 34.5455 70C40.2559 70 45.8913 68.5663 50.8942 65.8337C51.0857 65.7325 51.2771 65.6313 51.4686 65.5217C52.0762 65.1759 52.6673 64.8133 53.2583 64.4253C53.4497 64.2988 53.6412 64.1723 53.8326 64.0373C63.4055 57.5096 69.0909 46.6976 69.0909 35C69.0909 15.7036 53.5912 0 34.5455 0ZM34.5455 67.4699C31.1159 67.4699 27.7113 66.9132 24.4815 65.8337H44.6094C41.3796 66.9132 37.975 67.4699 34.5455 67.4699ZM51.3354 62.6627C50.9858 62.8819 50.6278 63.0928 50.2616 63.3036H18.8294C18.4631 63.1012 18.1051 62.8819 17.7639 62.6711V61.3892H33.5049V15.9819H35.586V61.3892H51.3354V62.6627ZM17.4392 26.9205C17.6806 26.9542 17.922 26.9795 18.1634 26.9795C18.4048 26.9795 18.6545 26.9542 18.8959 26.9205L28.4605 42.3626C28.5271 42.641 28.6353 43.341 28.6436 43.5349C28.6436 48.9157 23.9404 53.2928 18.1717 53.2928C12.4031 53.2928 7.69989 48.9157 7.69989 43.5349C7.69989 43.341 7.80811 42.6494 7.88302 42.3711L17.4475 26.9205H17.4392ZM15.2999 21.2361C15.2999 19.4651 16.5818 18.0229 18.1634 18.0229C19.745 18.0229 21.0269 19.4651 21.0269 21.2361C21.0269 23.0072 19.745 24.4494 18.1634 24.4494C16.5818 24.4494 15.2999 23.0072 15.2999 21.2361ZM21.2351 25.9422C21.593 25.6723 21.926 25.3518 22.209 24.9976H31.0077V42.4048C30.9244 41.9241 30.8079 41.4096 30.6414 41.1313L21.2351 25.9422ZM23.3993 20.0133H31.0077V22.4675H23.3993C23.4826 22.0711 23.5242 21.6578 23.5242 21.2361C23.5242 20.8145 23.4826 20.4012 23.3993 20.0048V20.0133ZM50.195 26.9289C50.4364 26.9627 50.6778 26.988 50.9192 26.988C51.1606 26.988 51.4103 26.9627 51.6517 26.9289L61.2162 42.3711C61.2828 42.6494 61.391 43.3494 61.3993 43.5434C61.3993 48.9241 56.6962 53.3012 50.9275 53.3012C45.1588 53.3012 40.4556 48.9241 40.4556 43.5434C40.4556 43.3494 40.5639 42.6578 40.6388 42.3795L50.2033 26.9289H50.195ZM48.0556 21.2446C48.0556 19.4735 49.3376 18.0313 50.9192 18.0313C52.5008 18.0313 53.7827 19.4735 53.7827 21.2446C53.7827 23.0157 52.5008 24.4578 50.9192 24.4578C49.3376 24.4578 48.0556 23.0157 48.0556 21.2446ZM38.4495 41.1398C38.2747 41.4181 38.1582 41.9157 38.0749 42.3964V24.9892H46.8736C47.165 25.3434 47.4896 25.6639 47.8475 25.9337L38.4412 41.1229L38.4495 41.1398ZM45.6832 22.4759H38.0749V20.0217H45.6832C45.6 20.4181 45.5584 20.8313 45.5584 21.253C45.5584 21.6747 45.6 22.088 45.6832 22.4843V22.4759ZM30.0088 13.4349V10.8795H39.0655V13.4349H30.0088ZM53.8243 60.959V58.8759H38.0749V45.188C38.924 51.1928 44.3514 55.8398 50.9192 55.8398C58.0697 55.8398 63.8883 50.3241 63.8883 43.5518C63.8883 43.4253 63.7551 41.7386 63.3888 41.1482L53.9825 25.959C55.3643 24.9217 56.28 23.2012 56.28 21.253C56.28 18.0904 53.8743 15.5096 50.9192 15.5096C49.3043 15.5096 47.8559 16.2771 46.8736 17.4916H38.0749V15.9651H41.5628V8.33253H27.5115V15.9482H30.9993V17.4747H22.2007C21.2184 16.2602 19.77 15.4928 18.1551 15.4928C15.2 15.4928 12.7943 18.0651 12.7943 21.2361C12.7943 23.1843 13.7016 24.8964 15.0918 25.9422L5.69376 41.1313C5.33582 41.7133 5.1943 43.2988 5.1943 43.5349C5.1943 50.3072 11.0129 55.8229 18.1634 55.8229C24.7229 55.8229 30.1503 51.1759 31.0077 45.1795V58.859H15.2666V60.9422C7.23374 54.8193 2.49726 45.2892 2.49726 35C2.49726 17.1036 16.8732 2.53012 34.5455 2.53012C52.2177 2.53012 66.5937 17.1036 66.5937 35C66.5937 45.2807 61.8572 54.8108 53.8326 60.9422L53.8243 60.959Z"/>
<path d="M9.78931 45.5168C10.3554 49.3288 13.9514 52.1963 18.1635 52.1963C22.3755 52.1963 25.9799 49.3204 26.5376 45.5168L26.754 44.0662H9.57288L9.78931 45.5168ZM23.5992 46.5963C22.6585 48.418 20.5525 49.6662 18.1635 49.6662C15.7744 49.6662 13.6684 48.418 12.7277 46.5963H23.5992Z"/>
<path d="M18.1634 27.5447L9.38965 42.9447H26.9371L18.1634 27.5447ZM18.1634 32.6049L22.6168 40.4146H13.7182L18.1717 32.6049H18.1634Z"/>
<path d="M42.5533 45.5168C43.1194 49.3288 46.7154 52.1963 50.9275 52.1963C55.1395 52.1963 58.7356 49.3204 59.3016 45.5168L59.5181 44.0662H42.3369L42.5533 45.5168ZM56.3632 46.5963C55.4226 48.418 53.3165 49.6662 50.9275 49.6662C48.5384 49.6662 46.4324 48.418 45.4918 46.5963H56.3632Z"/>
<path d="M50.9275 27.5447L42.1538 42.9447H59.7096L50.9358 27.5447H50.9275ZM50.9275 32.6049L55.381 40.4146H46.4741L50.9275 32.6049Z"/>
</svg>
