<svg width="70" height="71" viewBox="0 0 70 71" fill="#fff" xmlns="http://www.w3.org/2000/svg">
<path d="M35 0C19.153 0 5.73494 10.5928 1.44217 25.0735L1.28193 25.2337L1.3747 25.3265C0.489157 28.4048 0 31.6518 0 35.0084C0 54.3048 15.7036 70.0084 35 70.0084C54.2964 70.0084 70 54.3048 70 35.0084C70 15.712 54.2964 0 35 0ZM66.1458 25.8325L53.2422 38.7361L37.8506 23.2855L37.7831 23.2181L37.2855 22.7205L36.0626 21.4976L27.7301 29.8386C26.4482 31.112 24.3735 31.112 23.1 29.8301C22.9988 29.7289 22.9819 29.6108 22.9819 29.5518C22.9819 29.4928 22.9988 29.3747 23.1 29.2735L36.3578 16.0578C36.5181 15.906 36.7711 15.906 36.9229 16.0578L40.4735 19.6169L52.4494 7.64096C58.9687 11.8157 63.9108 18.259 66.1542 25.841L66.1458 25.8325ZM35 2.53012C40.4819 2.53012 45.6518 3.89639 50.1807 6.30843L40.4651 16.0241L38.7024 14.2614C37.5639 13.1145 35.7 13.1145 34.5614 14.2614L31.694 17.1205L20.5614 5.92891C24.9133 3.76145 29.8133 2.53012 35 2.53012ZM18.259 7.19397L29.906 18.8831L21.3036 27.4518C20.747 28.0084 20.4434 28.7422 20.4434 29.5181C20.4434 30.3024 20.747 31.0361 21.2952 31.5928C22.4253 32.7313 23.9181 33.2964 25.4108 33.2964C26.9036 33.2964 28.3795 32.7313 29.5096 31.6012L36.0626 25.0482L51.4289 40.4651L57.4506 46.5036C57.4506 46.5036 57.4506 46.5458 57.4084 46.5964L55.0301 49.1518C55.0301 49.1518 54.9542 49.2024 54.9542 49.2108L54.2458 48.553L49.5229 44.159L47.8024 46.006L52.5253 50.4C52.5253 50.4 52.5506 50.4422 52.5506 50.459C52.5506 50.4843 52.5506 50.5096 52.5337 50.5265L50.1554 53.0819C50.1554 53.0819 50.0626 53.1241 50.0289 53.0819L49.3373 52.441C49.3373 52.441 49.3373 52.441 49.3289 52.4325L44.2181 47.6759L42.4976 49.5229L47.6084 54.2879C47.6084 54.2879 47.6422 54.3807 47.6084 54.4144L45.2301 56.9699C45.2301 56.9699 45.1373 57.012 45.1036 56.9699L39.3012 51.5638L37.5807 53.4108L42.7337 58.2096C42.7337 58.2096 42.7 58.2687 42.6747 58.294L40.288 60.8494C40.288 60.8494 40.2373 60.8916 40.2205 60.9084L36.4422 57.3916C36.9566 56.8434 37.2434 56.1349 37.2434 55.3843C37.2434 54.5916 36.9398 53.8578 36.3831 53.2928L34.3843 51.2855C33.9458 50.847 33.406 50.5771 32.8494 50.4759C32.7398 49.894 32.4699 49.3626 32.0398 48.9325L30.041 46.9253C29.6193 46.4952 29.0795 46.2169 28.4976 46.1072C28.3964 45.5422 28.1265 45.0024 27.688 44.5638L25.6892 42.5566C25.2506 42.1181 24.7108 41.8482 24.1458 41.747C24.0446 41.1819 23.7747 40.6422 23.3361 40.2036L21.3373 38.1964C20.7807 37.6398 20.0386 37.3277 19.2542 37.3277C18.5373 37.353 17.9133 37.5807 17.3988 38.0024L4.24217 24.6265C6.72169 17.2976 11.7482 11.1325 18.259 7.19397ZM18.0398 49.641C18.0398 49.641 18.1241 49.5819 18.1663 49.5398L23.3193 44.4036C23.3193 44.4036 23.3867 44.3193 23.4205 44.2771C23.5723 44.2096 23.7578 44.2434 23.8843 44.3699L25.8831 46.3771C26.0096 46.5036 26.0349 46.6891 25.9759 46.841C25.9337 46.8747 25.8916 46.9 25.8494 46.9422L20.6964 52.0783C20.6964 52.0783 20.6373 52.1542 20.6036 52.1879C20.5361 52.2217 20.4687 52.2301 20.4265 52.2385C20.359 52.2385 20.2325 52.2217 20.1313 52.112L18.1325 50.1048C18.006 49.9783 17.9807 49.7928 18.0482 49.641H18.0398ZM16.3446 47.7181C16.3446 47.7181 16.2771 47.8024 16.2434 47.8446C16.0916 47.912 15.906 47.8783 15.7795 47.7518L13.7807 45.7446C13.6711 45.6349 13.6542 45.5084 13.6542 45.4494C13.6542 45.3819 13.6711 45.2554 13.7807 45.1542L18.9337 40.0181C19.0434 39.9084 19.1614 39.8916 19.2289 39.8916C19.3217 39.9084 19.4229 39.9084 19.5241 40.0181L21.5229 42.0253C21.6494 42.1518 21.6747 42.3373 21.6072 42.4892C21.5651 42.5229 21.5229 42.5482 21.4892 42.5904L16.3361 47.7265L16.3446 47.7181ZM22.3831 54.0012C22.3831 54.0012 22.4675 53.9422 22.5012 53.9L27.6542 48.7638C27.6542 48.7638 27.7217 48.6795 27.7554 48.6458C27.8313 48.612 27.8988 48.6036 27.9241 48.612C27.9916 48.612 28.1181 48.6289 28.2193 48.7385L30.2181 50.7458C30.3277 50.8554 30.3446 50.9819 30.3446 51.041C30.3446 51.0831 30.3277 51.1506 30.294 51.2181C30.2602 51.2518 30.2181 51.2771 30.1843 51.3108L25.0313 56.447C25.0313 56.447 24.9639 56.5313 24.9301 56.5735C24.7783 56.641 24.5928 56.6072 24.4663 56.4807L22.4675 54.4735C22.341 54.347 22.3157 54.1614 22.3831 54.0096V54.0012ZM26.7434 58.353C26.7434 58.353 26.8193 58.294 26.853 58.2602L32.006 53.1241C32.006 53.1241 32.0735 53.0398 32.1072 52.9976C32.1578 52.9723 32.2169 52.9638 32.2675 52.9638C32.3771 52.9638 32.4867 53.006 32.5627 53.0904L34.5614 55.0976C34.6711 55.2072 34.688 55.3337 34.688 55.3928C34.688 55.4602 34.6711 55.5867 34.5614 55.6879L29.4084 60.8241C29.2398 60.9843 28.9783 60.9843 28.8096 60.8241L26.8108 58.8169C26.7012 58.7072 26.6843 58.5807 26.6843 58.5217C26.6843 58.4795 26.7012 58.4205 26.7349 58.3446L26.7434 58.353ZM35 67.4614C17.0952 67.4699 2.53012 52.9048 2.53012 35C2.53012 32.394 2.8506 29.8554 3.43253 27.4181L15.5687 39.7988L12.0012 43.3578C11.4446 43.9145 11.1325 44.6566 11.1325 45.441C11.1325 46.2337 11.4361 46.9675 11.9928 47.5325L13.9916 49.5398C14.4301 49.9783 14.9699 50.2482 15.5349 50.3578C15.6361 50.9229 15.906 51.4626 16.3446 51.9012L18.3434 53.9084C18.7819 54.347 19.3217 54.6169 19.8867 54.7265C19.988 55.2916 20.2578 55.8313 20.6964 56.2699L22.6952 58.2771C23.1337 58.7157 23.6735 58.9855 24.2386 59.0952C24.3482 59.6771 24.6181 60.2084 25.0482 60.6385L27.047 62.6458C27.6205 63.2277 28.3795 63.5144 29.1386 63.5144C29.8976 63.5144 30.6482 63.2277 31.2217 62.6542L34.6542 59.2385L38.6518 62.9663C39.0482 63.3373 39.5711 63.5397 40.1361 63.5397C40.2711 63.5397 40.3976 63.5313 40.5325 63.506C41.1229 63.4048 41.6964 63.0928 42.1349 62.6289L44.5133 60.0735C44.6651 59.9048 44.7916 59.7277 44.9012 59.5422C44.9855 59.5506 45.0783 59.5675 45.1626 59.5675C45.8626 59.5675 46.5626 59.2891 47.0771 58.7325L49.4554 56.1771C49.6072 56.0169 49.7253 55.8397 49.8265 55.6542C49.9108 55.6542 49.9952 55.6795 50.0795 55.6795C50.7795 55.6795 51.4795 55.4012 51.994 54.8446L54.3723 52.2891C54.4651 52.1879 54.541 52.0867 54.6084 51.9771C54.659 51.9012 54.7012 51.8337 54.7434 51.7578C54.8108 51.7578 54.8699 51.7747 54.9373 51.7747C55.6373 51.7747 56.3542 51.4879 56.8771 50.9229L59.2554 48.3675C60.2422 47.3132 60.2084 45.6771 59.2217 44.7578L55.0301 40.5494L66.8542 28.7253C67.259 30.7663 67.4699 32.8663 67.4699 35.0253C67.4699 52.9301 52.9048 67.4952 35 67.4952V67.4614Z"/>
</svg>
