<svg width="70" height="70" viewBox="0 0 70 70" fill="#fff" xmlns="http://www.w3.org/2000/svg">
<path d="M34.5455 0C15.4997 0 0 15.7036 0 35C0 43.1976 2.83855 51.1337 8.02454 57.4084C8.1161 57.5349 8.22432 57.6614 8.32421 57.7795C9.58116 59.2807 10.988 60.6807 12.503 61.9458C12.6861 62.0976 12.8692 62.2494 13.0524 62.3843C19.1457 67.3096 26.7457 70 34.5455 70C42.3452 70 49.9536 67.3012 56.0386 62.3843C56.2217 62.241 56.4048 62.0976 56.5796 61.9458C58.0946 60.6807 59.5098 59.2807 60.7667 57.7795C60.8666 57.6614 60.9748 57.5349 61.0664 57.4084C66.2524 51.1337 69.0909 43.1976 69.0909 35C69.0909 15.7036 53.5912 0 34.5455 0ZM10.5218 56.4807V46.0819C11.221 47.7602 12.8609 48.9325 14.7755 48.9325C16.69 48.9325 18.3299 47.7518 19.0291 46.0735V59.8542H13.9264C12.7027 58.8169 11.5623 57.6867 10.5218 56.4807ZM14.7755 39.5795C12.8609 39.5795 11.221 40.7602 10.5218 42.4386V39.3096L14.7755 36.8048L19.0291 39.3096V42.447C18.3299 40.7687 16.6817 39.5795 14.7755 39.5795ZM16.8898 44.2602C16.8898 45.441 15.9409 46.4024 14.7755 46.4024C13.6101 46.4024 12.6528 45.441 12.6528 44.2602C12.6528 43.0795 13.6018 42.1096 14.7755 42.1096C15.9492 42.1096 16.8898 43.0795 16.8898 44.2602ZM34.5455 67.4699C28.4355 67.4699 22.4504 65.6904 17.331 62.3843H51.7516C46.6322 65.6904 40.6554 67.4699 34.5455 67.4699ZM26.729 16.353V14.6663H33.713V8.72048H35.3779V14.6663H42.3619V16.353H35.3779V22.9398L34.5455 22.4506L33.713 22.9398V16.353H26.729ZM34.5455 25.3771L47.5645 33.0518V59.8542H44.1266V53.7819C44.1266 53.1663 44.0684 52.5675 43.9601 51.9855C43.9352 51.8422 43.9019 51.6988 43.8686 51.5554C43.8353 51.412 43.802 51.2687 43.7604 51.1253C43.7354 51.041 43.7104 50.9566 43.6854 50.8723C43.6605 50.7711 43.6272 50.6699 43.5855 50.5687C43.1777 49.3795 42.5367 48.2916 41.7209 47.3639C41.6294 47.2542 41.5378 47.1446 41.4213 47.0434C41.3963 47.0012 41.363 46.9675 41.3214 46.9253C41.2881 46.9 41.2548 46.8663 41.2215 46.8325C41.1965 46.7988 41.1632 46.7735 41.1299 46.7482C41.03 46.647 40.9218 46.5542 40.8219 46.4614C40.6055 46.2759 40.3807 46.0988 40.156 45.9301L39.8064 45.6855C39.6898 45.6096 39.565 45.5337 39.4484 45.4578C38.8407 45.0783 38.1915 44.7831 37.5005 44.5639C37.3507 44.5133 37.2009 44.4626 37.0427 44.4289C36.7763 44.353 36.5016 44.294 36.2269 44.2434C36.0938 44.2181 35.9606 44.2012 35.8191 44.1759C35.8107 44.1675 35.8024 44.1675 35.7858 44.1759C35.3779 44.1084 34.97 44.0831 34.5455 44.0831C34.1209 44.0831 33.713 44.1084 33.3051 44.1759C33.2968 44.1675 33.2802 44.1675 33.2719 44.1759C33.1303 44.2012 32.9972 44.2181 32.864 44.2434C32.5893 44.294 32.3146 44.353 32.0482 44.4289C31.89 44.4626 31.7402 44.5133 31.5904 44.5639C30.8995 44.7831 30.2502 45.0783 29.6425 45.4578C29.526 45.5337 29.4011 45.6096 29.2846 45.6855C29.168 45.7614 29.0515 45.8458 28.9349 45.9301C28.7102 46.0988 28.4854 46.2759 28.269 46.4614C28.1691 46.5542 28.0609 46.647 27.961 46.7482C27.8528 46.8494 27.7529 46.9506 27.653 47.0518C27.5531 47.153 27.4616 47.2542 27.37 47.3639C26.5542 48.2916 25.9133 49.3795 25.5054 50.5687C25.4637 50.6699 25.4305 50.7711 25.4055 50.8723C25.3805 50.9566 25.3555 51.041 25.3306 51.1253C25.2889 51.2687 25.2556 51.412 25.2223 51.5554C25.189 51.6988 25.1558 51.8422 25.1308 51.9855C25.0226 52.5675 24.9643 53.1663 24.9643 53.7819V59.8542H21.5264V33.0518L34.5455 25.3771ZM41.6294 53.7904V59.8542H35.7941V46.7229C39.1071 47.3217 41.6294 50.2651 41.6294 53.7904ZM33.2968 46.7229V59.8542H27.4616V53.7904C27.4616 50.2651 29.9838 47.3217 33.2968 46.7229ZM58.5691 56.4807C57.5286 57.6867 56.3882 58.8169 55.1562 59.8542H50.0618V46.0819C50.761 47.7518 52.4092 48.9325 54.3154 48.9325C56.2217 48.9325 57.8699 47.7518 58.5691 46.0651V56.4807ZM52.1928 44.2602C52.1928 43.0795 53.1417 42.1096 54.3154 42.1096C55.4892 42.1096 56.4298 43.0795 56.4298 44.2602C56.4298 45.441 55.4808 46.4024 54.3154 46.4024C53.1501 46.4024 52.1928 45.441 52.1928 44.2602ZM58.5691 42.4554C57.8699 40.7687 56.23 39.5795 54.3154 39.5795C52.4009 39.5795 50.761 40.7602 50.0618 42.4386V39.3096L54.3154 36.8048L58.5691 39.3096V42.4554ZM54.3154 33.8783L50.0618 36.3916V31.5928L37.8751 24.4157V18.8831H44.8591V12.1361H37.8751V6.19036H31.2158V12.1361H24.2318V18.8831H31.2158V24.4157L19.0291 31.5928V36.3831L14.7755 33.8783L8.02454 37.859V53.2084C4.4368 47.8614 2.49726 41.5193 2.49726 35C2.49726 17.1036 16.8732 2.53012 34.5455 2.53012C52.2177 2.53012 66.5937 17.1036 66.5937 35C66.5937 41.5193 64.6541 47.8614 61.0664 53.2084V37.859L54.3154 33.8783Z"/>
<path d="M34.5455 42.6409C38.5744 42.6409 41.8541 39.318 41.8541 35.2361C41.8541 31.1542 38.5744 27.8313 34.5455 27.8313C30.5166 27.8313 27.2368 31.1542 27.2368 35.2361C27.2368 39.318 30.5166 42.6409 34.5455 42.6409ZM34.5455 30.3614C37.2009 30.3614 39.3569 32.5458 39.3569 35.2361C39.3569 37.9265 37.2009 40.1108 34.5455 40.1108C31.89 40.1108 29.7341 37.9265 29.7341 35.2361C29.7341 32.5458 31.89 30.3614 34.5455 30.3614Z"/>
</svg>
