<svg width="144" height="30" viewBox="0 0 144 30" fill="#fff" xmlns="http://www.w3.org/2000/svg">
<g clip-path="url(#clip0_47_3665)">
<path d="M0 29.015L4.6 0.334961H10.1L17.24 17.495L24.38 0.334961H29.88L34.48 29.015H27.86L25.58 11.905L18.4 29.015H16.08L8.9 11.905L6.62 29.015H0Z"/>
<path d="M58.0101 23.595H47.1701L44.9801 29.015H38.1001L49.6601 0.334961H55.7201L67.0301 29.015H60.1501L58.0001 23.595H58.0101ZM56.2001 18.525L52.6701 8.89496L49.1001 18.525H56.1901H56.2001Z"/>
<path d="M69.27 15.4248H80.28V20.8448H69.27V15.4248Z"/>
<path d="M84.8501 9.8352H91.0401V12.1152C92.9301 9.7052 95.1701 9.3252 96.9701 9.3252C98.6501 9.3252 100.84 9.6252 102.47 11.2552C104.28 13.0652 104.41 15.3352 104.41 16.8852V29.0152H98.2201V19.1652C98.2201 17.9152 98.1801 16.3252 97.1901 15.3352C96.7201 14.8652 95.9401 14.4752 94.8301 14.4752C93.5401 14.4752 92.7201 14.9952 92.2501 15.5052C91.2201 16.5352 91.0501 17.9152 91.0501 19.1652V29.0152H84.8601V9.8352H84.8501Z"/>
<path d="M121.59 22.8251C121.07 23.9051 120.34 24.3751 120.26 24.4151C119.62 24.8051 118.67 24.9751 117.77 24.9751C116.87 24.9751 115.53 24.8051 114.59 23.7751C113.81 22.9151 113.43 21.5351 113.43 20.5051H127.75V19.8651C127.75 17.4951 127.32 14.4851 125.04 12.0851C122.67 9.59508 119.58 9.20508 117.43 9.20508C115.28 9.20508 112.4 9.63508 110.08 11.9551C108.15 13.9351 107.16 16.7751 107.16 19.5251C107.16 22.7051 108.36 25.2451 110.04 26.9251C112.28 29.1651 114.81 29.6751 117.69 29.6751C119.84 29.6751 121.9 29.3751 123.75 28.2551C124.87 27.5651 126.59 26.1451 127.45 23.4351C127.52 23.2551 127.58 23.0351 127.64 22.8351H121.61M113.65 16.8151C113.82 15.9551 114.25 15.2651 114.73 14.7551C115.33 14.1551 116.28 13.5051 117.87 13.5051C119.12 13.5051 120.11 13.9351 120.79 14.5851C121.69 15.4451 121.99 16.6451 122.04 16.8251H113.66L113.65 16.8151Z"/>
<path d="M139.59 9.83502V3.64502H133.4V9.83502H129.57V14.825H133.4V29.015H139.59V14.825H143.42V9.83502H139.59Z"/>
</g>
<defs>
<clipPath id="clip0_47_3665">
<rect width="143.42" height="29.33" fill="white" transform="translate(0 0.334961)"/>
</clipPath>
</defs>
</svg>
