<svg width="70" height="70" viewBox="0 0 70 70" fill="#fff" xmlns="http://www.w3.org/2000/svg">
<path d="M69.7807 31.1373C69.7554 30.8253 69.7217 30.5217 69.6795 30.2349C69.4349 28.4386 69.047 26.6337 68.5072 24.8711C68.4398 24.6349 68.3639 24.3904 68.2795 24.1542C68.1783 23.8337 68.0687 23.5133 67.9506 23.2012C67.5205 21.9952 67.0229 20.8229 66.4663 19.6928C60.6807 7.7759 48.4687 0 35 0C15.7036 0 0 15.7036 0 35C0 38.5759 0.539759 42.1012 1.60241 45.4747C1.88916 46.4108 2.22651 47.3386 2.59759 48.2241C2.75783 48.6289 2.93494 49.0337 3.11205 49.4386C3.24699 49.7337 3.38193 50.0205 3.51687 50.3072C4.2759 51.8506 5.12771 53.3265 6.08072 54.7181L6.18193 54.8614C6.3253 55.0639 6.46024 55.2663 6.61205 55.4602C6.61205 55.4771 6.62892 55.494 6.63735 55.5024C6.87349 55.8313 7.11807 56.1602 7.37108 56.4723C8.89759 58.4542 10.6265 60.2506 12.5325 61.8277C13.3422 62.5108 14.1855 63.1518 15.0458 63.7506C15.8554 64.3157 16.6904 64.8386 17.5337 65.3277H17.5422C22.8133 68.3723 28.8434 70 35 70C52.0783 70 66.5253 57.6277 69.4518 41.1819C69.6205 40.2458 69.7554 39.2928 69.8398 38.3313C69.8735 37.9855 69.8988 37.6482 69.9241 37.3024C69.941 37.0494 69.9578 36.8048 69.9663 36.5687C69.9916 36.0458 70 35.5313 70 35C70 33.659 69.9241 32.3518 69.7807 31.1373ZM66.0867 25.6133C66.3566 26.5072 66.5928 27.4181 66.7867 28.3373L57.653 23.8337L65.5807 24.0783C65.7578 24.5759 65.9265 25.0988 66.0867 25.6133ZM3.08675 40.9711C2.71566 39.0145 2.53012 37.0241 2.53012 35C2.53012 17.0952 17.0952 2.53012 35 2.53012C46.2928 2.53012 56.6325 8.4253 62.4855 17.7277L51.3699 12.2542L6.42651 22.2735L28.4554 22.9482L22.4843 27.1904L6.44337 30.7663L16.994 31.0867L3.08675 40.9711ZM4.3012 43.206L21.1771 31.2217L28.8602 25.7651L36.0542 20.6542L26.6253 20.3675L51.041 14.9193L64.4337 21.5145L52.1542 21.1434L49.894 21.0759L49.7675 21.1096L46.4952 24.4325L24.5843 46.6639L13.3422 45.2807L9.61446 44.8253L4.65542 44.2181C4.52892 43.8892 4.41084 43.5518 4.29277 43.2145L4.3012 43.206ZM5.22892 47.9373C5.11928 47.7181 5.02651 47.4904 4.93373 47.2627C4.86626 47.1024 4.79879 46.9337 4.73976 46.7651L6.56988 46.9928L5.23735 47.9373H5.22892ZM9.63133 53.3096L8.06265 53.1241L7.94458 53.1072C7.35422 52.2217 6.79759 51.2771 6.2747 50.2988L6.33374 50.2566L10.2892 47.4482L25.5205 49.3205L50.8386 23.6313L51.547 23.6566L64.4506 30.0072L52.1711 29.6361L49.9193 29.5602H49.8096L49.7759 29.594L48.1313 31.2639L46.4952 32.9169L24.5928 55.1482L13.3506 53.7735L11.4867 53.5373L9.63133 53.3096ZM18.3855 62.8819C16.9012 62.0132 15.4928 61.0096 14.1602 59.888C12.7349 58.7072 11.4193 57.4 10.2217 55.9916L10.2892 55.9494L25.5205 57.8133L50.8386 32.1241L51.5386 32.1494L64.4506 38.5L49.8096 38.0614L24.5928 63.641L18.3855 62.8819ZM35 67.4699C31.8373 67.4699 28.7084 67.006 25.7145 66.1036L50.8386 40.6253L66.8964 41.106C64.0289 56.1771 50.712 67.4699 35 67.4699ZM67.4361 36.459C67.4277 36.6783 67.4108 36.8892 67.394 37.1253L57.653 32.3349L67.3855 32.6301C67.4446 33.406 67.4699 34.1988 67.4699 35C67.4699 35.4892 67.4699 35.9614 67.4361 36.459Z"/>
</svg>
