<svg width="70" height="70" viewBox="0 0 70 70" fill="#F2F5FC" xmlns="http://www.w3.org/2000/svg">
<path d="M34.5455 0C15.4997 0 0 15.7036 0 35C0 44.4289 3.646 53.2675 10.2721 59.8964C11.246 60.8663 12.2782 61.7855 13.3271 62.612C19.437 67.4446 26.779 70 34.5455 70C53.5912 70 69.0909 54.2964 69.0909 35C69.0909 15.7036 53.5912 0 34.5455 0ZM34.5455 67.4699C33.8545 67.4699 33.1803 67.4446 32.4977 67.394C32.2896 67.3771 32.0732 67.3602 31.8651 67.3434C31.3739 67.3012 30.8828 67.2506 30.4 67.1831C30.1919 67.1578 29.9838 67.1325 29.7674 67.0988C29.1597 67.006 28.552 66.8964 27.961 66.7699C27.6863 66.7108 27.4199 66.6434 27.1452 66.5759C26.779 66.4916 26.4127 66.3904 26.0464 66.2892C25.7551 66.2048 25.4637 66.1289 25.1807 66.0361C24.6646 65.8759 24.1568 65.7072 23.6574 65.5217C23.3827 65.4205 23.1163 65.3108 22.8416 65.2012C22.4421 65.041 22.0508 64.8807 21.6596 64.7036C21.4348 64.6024 21.2101 64.5012 20.9853 64.3916C20.4026 64.1133 19.8199 63.8265 19.2539 63.5145C19.2539 63.5145 19.2456 63.5145 19.2372 63.506C18.6129 63.1602 18.0053 62.7892 17.3976 62.4012C17.3643 62.3759 17.3227 62.359 17.2811 62.3337C13.5518 59.9133 10.3387 56.7337 7.8747 53.006C7.81643 52.9133 7.75816 52.8205 7.69989 52.7361C7.50011 52.4241 7.292 52.1036 7.10055 51.7831C6.30142 50.4506 5.60219 49.059 5.00285 47.6337C5.00285 47.6169 4.9862 47.5916 4.97788 47.5747C4.78642 47.1193 4.61161 46.6554 4.4368 46.1916C4.42015 46.141 4.40351 46.0819 4.37853 46.0313C4.2287 45.6012 4.07886 45.1711 3.94567 44.7325C3.9207 44.6482 3.89573 44.5639 3.87076 44.4711C3.74589 44.0663 3.63768 43.6614 3.52946 43.2482C3.49617 43.1301 3.47119 43.0205 3.44622 42.9024C3.35466 42.5229 3.26309 42.1349 3.17985 41.747C3.14655 41.6036 3.12158 41.4687 3.0966 41.3253C3.02169 40.9626 2.96342 40.5916 2.90515 40.2205C2.88018 40.0602 2.8552 39.9 2.83023 39.7398C2.78029 39.3855 2.73866 39.0229 2.69704 38.6602C2.68039 38.4916 2.65542 38.3229 2.63877 38.1542C2.60548 37.7831 2.5805 37.4036 2.55553 37.0325C2.54721 36.8807 2.53056 36.7205 2.52223 36.5687C2.49726 36.0373 2.48061 35.506 2.48061 34.9747C2.48061 34.4434 2.49726 33.9036 2.52223 33.3723C2.53056 33.1614 2.55553 32.959 2.56386 32.7482C2.58883 32.4361 2.60548 32.1157 2.63877 31.8036C2.66375 31.5337 2.69704 31.2723 2.73034 31.0024C2.76364 30.7578 2.78861 30.5133 2.82191 30.2687C2.86353 29.9566 2.9218 29.653 2.97174 29.3494C3.00504 29.1639 3.03834 28.9699 3.07163 28.7843C3.13823 28.4386 3.21314 28.0928 3.28806 27.7554C3.32136 27.6205 3.34633 27.4771 3.37963 27.3422C3.47119 26.9626 3.57108 26.5831 3.67097 26.2036C3.69595 26.1193 3.72092 26.0349 3.74589 25.9422C3.86243 25.5205 3.99562 25.0988 4.12881 24.6855C4.12881 24.6602 4.14545 24.6434 4.15378 24.6181C7.53341 14.5229 15.6828 6.62892 25.9049 3.73614C25.9965 3.71084 26.0881 3.68554 26.1713 3.66024C26.4959 3.56747 26.8289 3.49157 27.1619 3.40723C27.3284 3.36506 27.4949 3.33133 27.6613 3.28916C27.9527 3.22169 28.244 3.16265 28.5437 3.10361C28.7601 3.06145 28.9766 3.01928 29.193 2.98554C29.4594 2.94337 29.7174 2.9012 29.9838 2.85904C30.2418 2.8253 30.5082 2.79157 30.7746 2.75783C31.0077 2.73253 31.2407 2.6988 31.4738 2.68193C31.7901 2.64819 32.1148 2.63133 32.4394 2.60602C32.6226 2.59759 32.814 2.58072 32.9972 2.56386C33.5133 2.53855 34.0294 2.52169 34.5538 2.52169C52.251 2.52169 66.602 17.0614 66.602 34.9916C66.602 52.9217 52.251 67.4614 34.5538 67.4614L34.5455 67.4699Z"/>
<path d="M48.4219 10.0783H14.0263C17.4558 7.17705 21.4848 4.99271 25.8966 3.73608C15.6828 6.62885 7.53339 14.5228 4.17041 24.6433C5.55223 20.4855 7.74982 16.7072 10.5634 13.4939V56.5228C9.58947 55.4096 8.69878 54.2457 7.89133 53.0313C10.3553 56.759 13.5601 59.9385 17.2977 62.359H48.4219V10.0783ZM45.9246 59.8288H15.2166C14.4841 59.1879 13.7599 58.5048 13.0607 57.7795V27.1481H45.9246V59.8288ZM45.9246 24.618H13.0607V12.6084H45.9246V24.618Z"/>
<path d="M39.4568 58.4542H41.9457C43.0861 58.4542 44.0184 57.5096 44.0184 56.3542V49.6325C44.0184 48.477 43.0861 47.5325 41.9457 47.5325H39.4568C38.3163 47.5325 37.384 48.477 37.384 49.6325V56.3542C37.384 57.5096 38.3163 58.4542 39.4568 58.4542ZM39.873 50.0542H41.5295V55.9325H39.873V50.0542Z"/>
<path d="M39.4568 46.5374H41.9457C43.0861 46.5374 44.0184 45.5928 44.0184 44.4374V37.7157C44.0184 36.5603 43.0861 35.6157 41.9457 35.6157H39.4568C38.3163 35.6157 37.384 36.5603 37.384 37.7157V44.4374C37.384 45.5928 38.3163 46.5374 39.4568 46.5374ZM39.873 38.1374H41.5295V44.0157H39.873V38.1374Z"/>
<path d="M39.4568 34.6204H41.9457C43.0861 34.6204 44.0184 33.6759 44.0184 32.5204V30.5976C44.0184 29.4421 43.0861 28.4976 41.9457 28.4976H39.4568C38.3163 28.4976 37.384 29.4421 37.384 30.5976V32.5204C37.384 33.6759 38.3163 34.6204 39.4568 34.6204ZM39.873 31.0192H41.5295V32.0988H39.873V31.0192Z"/>
<path d="M31.9983 58.4542H34.4872C35.6276 58.4542 36.5599 57.5096 36.5599 56.3542V54.4313C36.5599 53.2759 35.6276 52.3313 34.4872 52.3313H31.9983C30.8578 52.3313 29.9255 53.2759 29.9255 54.4313V56.3542C29.9255 57.5096 30.8578 58.4542 31.9983 58.4542ZM32.4145 54.853H34.071V55.9325H32.4145V54.853Z"/>
<path d="M31.9983 50.5096H34.4872C35.6276 50.5096 36.5599 49.565 36.5599 48.4096V46.4867C36.5599 45.3313 35.6276 44.3867 34.4872 44.3867H31.9983C30.8578 44.3867 29.9255 45.3313 29.9255 46.4867V48.4096C29.9255 49.565 30.8578 50.5096 31.9983 50.5096ZM32.4145 46.9084H34.071V47.9879H32.4145V46.9084Z"/>
<path d="M31.9983 42.565H34.4872C35.6276 42.565 36.5599 41.6205 36.5599 40.465V38.5421C36.5599 37.3867 35.6276 36.4421 34.4872 36.4421H31.9983C30.8578 36.4421 29.9255 37.3867 29.9255 38.5421V40.465C29.9255 41.6205 30.8578 42.565 31.9983 42.565ZM32.4145 38.9638H34.071V40.0433H32.4145V38.9638Z"/>
<path d="M31.9983 34.6204H34.4872C35.6276 34.6204 36.5599 33.6759 36.5599 32.5204V30.5976C36.5599 29.4421 35.6276 28.4976 34.4872 28.4976H31.9983C30.8578 28.4976 29.9255 29.4421 29.9255 30.5976V32.5204C29.9255 33.6759 30.8578 34.6204 31.9983 34.6204ZM32.4145 31.0192H34.071V32.0988H32.4145V31.0192Z"/>
<path d="M24.5315 58.4542H27.0204C28.1608 58.4542 29.0931 57.5096 29.0931 56.3542V54.4313C29.0931 53.2759 28.1608 52.3313 27.0204 52.3313H24.5315C23.3911 52.3313 22.4587 53.2759 22.4587 54.4313V56.3542C22.4587 57.5096 23.3911 58.4542 24.5315 58.4542ZM24.9477 54.853H26.6042V55.9325H24.9477V54.853Z"/>
<path d="M24.5315 50.5096H27.0204C28.1608 50.5096 29.0931 49.565 29.0931 48.4096V46.4867C29.0931 45.3313 28.1608 44.3867 27.0204 44.3867H24.5315C23.3911 44.3867 22.4587 45.3313 22.4587 46.4867V48.4096C22.4587 49.565 23.3911 50.5096 24.5315 50.5096ZM24.9477 46.9084H26.6042V47.9879H24.9477V46.9084Z"/>
<path d="M24.5315 42.565H27.0204C28.1608 42.565 29.0931 41.6205 29.0931 40.465V38.5421C29.0931 37.3867 28.1608 36.4421 27.0204 36.4421H24.5315C23.3911 36.4421 22.4587 37.3867 22.4587 38.5421V40.465C22.4587 41.6205 23.3911 42.565 24.5315 42.565ZM24.9477 38.9638H26.6042V40.0433H24.9477V38.9638Z"/>
<path d="M24.5315 34.6204H27.0204C28.1608 34.6204 29.0931 33.6759 29.0931 32.5204V30.5976C29.0931 29.4421 28.1608 28.4976 27.0204 28.4976H24.5315C23.3911 28.4976 22.4587 29.4421 22.4587 30.5976V32.5204C22.4587 33.6759 23.3911 34.6204 24.5315 34.6204ZM24.9477 31.0192H26.6042V32.0988H24.9477V31.0192Z"/>
<path d="M17.073 58.4542H19.5619C20.7023 58.4542 21.6346 57.5096 21.6346 56.3542V54.4313C21.6346 53.2759 20.7023 52.3313 19.5619 52.3313H17.073C15.9326 52.3313 15.0002 53.2759 15.0002 54.4313V56.3542C15.0002 57.5096 15.9326 58.4542 17.073 58.4542ZM17.4892 54.853H19.1457V55.9325H17.4892V54.853Z"/>
<path d="M17.073 50.5096H19.5619C20.7023 50.5096 21.6346 49.565 21.6346 48.4096V46.4867C21.6346 45.3313 20.7023 44.3867 19.5619 44.3867H17.073C15.9326 44.3867 15.0002 45.3313 15.0002 46.4867V48.4096C15.0002 49.565 15.9326 50.5096 17.073 50.5096ZM17.4892 46.9084H19.1457V47.9879H17.4892V46.9084Z"/>
<path d="M17.073 42.565H19.5619C20.7023 42.565 21.6346 41.6205 21.6346 40.465V38.5421C21.6346 37.3867 20.7023 36.4421 19.5619 36.4421H17.073C15.9326 36.4421 15.0002 37.3867 15.0002 38.5421V40.465C15.0002 41.6205 15.9326 42.565 17.073 42.565ZM17.4892 38.9638H19.1457V40.0433H17.4892V38.9638Z"/>
<path d="M17.073 34.6204H19.5619C20.7023 34.6204 21.6346 33.6759 21.6346 32.5204V30.5976C21.6346 29.4421 20.7023 28.4976 19.5619 28.4976H17.073C15.9326 28.4976 15.0002 29.4421 15.0002 30.5976V32.5204C15.0002 33.6759 15.9326 34.6204 17.073 34.6204ZM17.4892 31.0192H19.1457V32.0988H17.4892V31.0192Z"/>
<path d="M18.3632 23.1084H40.4889C42.0955 23.1084 43.4024 21.7843 43.4024 20.1566V17.0783C43.4024 15.4506 42.0955 14.1265 40.4889 14.1265H18.3632C16.7566 14.1265 15.4497 15.4506 15.4497 17.0783V20.1566C15.4497 21.7843 16.7566 23.1084 18.3632 23.1084ZM17.947 17.0783C17.947 16.8421 18.1301 16.6566 18.3632 16.6566H40.4889C40.722 16.6566 40.9051 16.8421 40.9051 17.0783V20.1566C40.9051 20.3927 40.722 20.5783 40.4889 20.5783H18.3632C18.1301 20.5783 17.947 20.3927 17.947 20.1566V17.0783Z"/>
<path d="M56.4131 15.8133C56.4131 14.4555 55.3227 13.3591 53.9908 13.3591H52.3343C50.9941 13.3591 49.9119 14.464 49.9119 15.8133V16.817H49.4541V55.1736H51.8099L52.4758 57.0206C52.2344 57.1724 52.0263 57.3832 51.9014 57.6447C51.7849 57.864 51.7266 58.117 51.7266 58.37C51.7266 58.935 52.0263 59.4579 52.4425 59.6941C52.6922 59.8543 52.9752 59.9387 53.2749 59.9387C53.5746 59.9387 53.8493 59.8543 54.0407 59.7363C54.5235 59.4579 54.8232 58.935 54.8232 58.37C54.8232 58.117 54.7649 57.864 54.6651 57.6784C54.5319 57.4001 54.3154 57.1724 54.0657 57.0206L54.7316 55.182H57.104V16.817H56.4215V15.8133H56.4131ZM52.4009 15.8893H53.9159V16.7326H52.4009V15.8893ZM54.5901 52.6435H51.9347V19.3471H54.5901V52.6435Z"/>
</svg>
