<svg version="1.0" xmlns="http://www.w3.org/2000/svg"
width="452.000000pt" height="452.000000pt" viewBox="0 0 452.000000 452.000000"
preserveAspectRatio="xMidYMid meet">
<style>
  .icon { fill:  #0e2248; }
  @media (prefers-color-scheme: dark) {
  .icon { fill: #fff; }
  }
</style>
<g class="icon" transform="translate(0.000000,452.000000) scale(0.100000,-0.100000)" stroke="none" fill="currenrColor">
<path d="M1828 4515 c-2 -2 -25 -5 -53 -8 -117 -13 -216 -65 -319 -165 -156
-151 -275 -417 -311 -692 -3 -25 -8 -61 -10 -80 -6 -44 -6 -294 0 -335 2 -16
7 -57 10 -90 6 -50 48 -237 70 -304 5 -16 -4 -24 -52 -46 -244 -115 -488 -354
-636 -625 -122 -223 -175 -507 -130 -706 53 -237 228 -402 458 -431 97 -13
205 -6 298 17 44 12 49 11 62 -7 8 -11 42 -53 76 -94 187 -225 419 -420 725
-611 192 -121 492 -248 697 -297 119 -28 139 -31 273 -38 298 -14 489 90 544
297 19 68 15 189 -8 275 -8 27 -4 32 47 71 198 150 407 432 497 670 88 235 93
485 13 650 -53 108 -140 190 -243 229 -47 18 -48 19 -41 54 31 171 40 375 20
501 -13 90 -56 242 -85 306 l-30 66 25 30 c33 39 81 142 93 202 22 105 -3 237
-64 341 -62 107 -226 241 -378 310 -270 122 -571 165 -912 130 l-71 -7 -38 58
c-84 129 -241 258 -361 299 -41 14 -160 35 -166 30z m-45 -346 c55 -28 108
-74 152 -132 l35 -46 -63 -37 c-310 -185 -427 -457 -306 -711 64 -135 207
-264 390 -353 45 -22 84 -41 86 -44 3 -2 -9 -34 -27 -71 l-31 -66 -54 49 c-69
64 -151 106 -246 128 -55 13 -227 12 -289 -2 -36 -8 -70 -12 -75 -10 -12 4
-37 83 -66 211 -23 104 -35 412 -19 505 6 30 12 69 14 86 7 46 34 145 52 190
74 184 170 293 284 324 42 11 119 1 163 -21z m1136 -534 c183 -23 316 -68 431
-146 50 -34 111 -89 98 -89 -3 0 -23 7 -44 17 -52 22 -173 26 -227 7 -76 -26
-129 -58 -182 -109 -100 -96 -191 -264 -227 -419 l-13 -59 -99 6 c-54 3 -100
8 -103 10 -2 3 5 49 16 103 11 55 23 127 26 162 13 128 6 381 -15 474 -9 42
-7 43 60 47 25 2 46 4 48 5 4 5 182 -2 231 -9z m-775 -370 c-2 -136 -13 -225
-28 -225 -20 0 -84 99 -96 150 -20 83 16 183 89 246 l26 23 5 -42 c3 -23 5
-91 4 -152z m1329 -76 c32 -13 31 -10 13 -53 -25 -60 -114 -138 -217 -189 -52
-26 -107 -50 -123 -53 -26 -6 -28 -5 -22 17 17 61 85 177 128 220 69 69 144
89 221 58z m208 -292 c15 -48 31 -108 35 -135 3 -26 8 -56 10 -67 6 -27 5
-259 0 -277 -3 -7 -7 -32 -10 -54 -3 -23 -10 -61 -16 -85 l-11 -44 -87 -2
c-105 -1 -223 -29 -335 -79 -45 -19 -87 -38 -93 -40 -11 -5 -58 98 -69 153
-25 118 -33 212 -30 323 3 104 11 193 18 196 1 0 45 13 97 28 115 33 294 119
374 180 l59 45 15 -27 c7 -15 27 -66 43 -115z m-949 -157 c4 0 4 -12 2 -27
-18 -99 -3 -343 30 -487 15 -63 58 -172 95 -241 l39 -72 -52 -50 c-67 -64
-133 -139 -164 -185 -13 -21 -27 -38 -30 -38 -3 0 -46 26 -96 59 -127 82 -255
153 -366 202 -52 24 -97 44 -99 45 -1 2 5 26 14 54 19 58 18 54 36 173 l13 88
55 41 c107 78 220 234 277 379 l26 67 107 -4 c58 -2 109 -4 113 -4z m-1192
-36 c95 -16 185 -97 214 -191 7 -21 4 -23 -27 -23 -84 0 -187 63 -257 158 -22
30 -40 58 -40 63 0 8 40 6 110 -7z m-212 -112 c98 -169 230 -298 366 -358 73
-32 71 -23 34 -121 -20 -56 -16 -54 -98 -37 -14 3 -79 7 -145 9 -260 7 -440
-84 -506 -254 -39 -100 -32 -274 16 -388 16 -38 17 -38 -58 -52 -115 -21 -229
12 -299 87 -147 157 -115 454 81 752 71 107 243 282 340 345 74 47 185 104
207 105 6 0 34 -40 62 -88z m2245 -536 c15 -5 27 -12 27 -16 0 -4 -18 -27 -41
-50 -47 -48 -109 -79 -158 -80 -41 0 -109 31 -140 64 l-22 23 55 22 c110 45
204 57 279 37z m140 -143 c53 -175 -57 -479 -262 -723 -50 -60 -147 -160 -154
-160 -3 0 -36 37 -73 83 -120 146 -283 304 -438 424 l-29 23 44 57 c24 31 74
88 111 126 l67 70 35 -31 c137 -120 311 -139 459 -49 52 32 140 120 178 178
17 27 35 49 39 49 5 0 15 -21 23 -47z m-2343 -305 c-25 -22 -79 -63 -120 -90
l-75 -50 -3 26 c-9 74 88 149 200 154 l43 2 -45 -42z m687 -164 c102 -55 127
-70 261 -158 120 -79 123 -82 117 -111 -4 -16 -13 -72 -19 -122 -45 -327 94
-578 357 -646 67 -18 221 -20 291 -5 26 5 50 7 53 4 3 -3 7 -24 8 -47 13 -222
-228 -269 -625 -122 -242 90 -571 288 -809 488 -93 78 -287 270 -305 303 -5 9
-22 30 -38 47 l-27 30 22 11 c207 109 365 233 485 381 l33 41 64 -29 c35 -16
95 -45 132 -65z m579 -396 c32 -29 103 -97 158 -151 73 -74 95 -102 85 -108
-8 -4 -50 -7 -95 -6 -69 2 -87 6 -123 30 -67 44 -100 114 -102 214 -2 91 -3
91 77 21z"/>
</g>
</svg>
